<svg width="274" height="68" viewBox="0 0 274 68" fill="none" xmlns="http://www.w3.org/2000/svg">
<path d="M13.136 52.72C11.248 52.72 9.552 52.304 8.048 51.472C6.544 50.608 5.344 49.296 4.448 47.536C3.584 45.744 3.152 43.456 3.152 40.672C3.152 37.856 3.648 35.536 4.64 33.712C5.632 31.856 6.944 30.48 8.576 29.584C10.208 28.656 11.984 28.192 13.904 28.192C15.024 28.192 16.096 28.304 17.12 28.528C18.144 28.752 19.056 29.088 19.856 29.536V23.296C19.856 22.624 19.744 22.128 19.52 21.808C19.328 21.488 18.896 21.264 18.224 21.136L17.312 20.944V20.464L26.048 18.352L26.576 18.784L26.384 25.504V48.976C26.384 49.616 26.496 50.144 26.72 50.56C26.944 50.944 27.36 51.216 27.968 51.376L28.4 51.52V52L20.192 52.528L19.76 50.8C18.896 51.376 17.904 51.84 16.784 52.192C15.696 52.544 14.48 52.72 13.136 52.72ZM15.92 50.944C17.264 50.944 18.496 50.544 19.616 49.744V30.688C18.432 29.92 17.216 29.536 15.968 29.536C14.432 29.536 13.12 30.432 12.032 32.224C10.944 33.984 10.4 36.768 10.4 40.576C10.4 44.384 10.912 47.072 11.936 48.64C12.96 50.176 14.288 50.944 15.92 50.944ZM37.0618 52.72C35.2058 52.72 33.6378 52.192 32.3578 51.136C31.1098 50.08 30.4858 48.56 30.4858 46.576C30.4858 45.072 31.2538 43.696 32.7898 42.448C34.3258 41.168 36.7418 40.208 40.0378 39.568C40.5498 39.472 41.1258 39.376 41.7657 39.28C42.4058 39.152 43.0778 39.024 43.7818 38.896V35.104C43.7818 32.928 43.5098 31.408 42.9658 30.544C42.4538 29.648 41.6378 29.2 40.5178 29.2C39.7498 29.2 39.1418 29.456 38.6938 29.968C38.2458 30.448 37.9578 31.296 37.8298 32.512L37.7338 33.04C37.6698 34.416 37.3338 35.424 36.7258 36.064C36.1178 36.704 35.3658 37.024 34.4698 37.024C33.6378 37.024 32.9498 36.768 32.4058 36.256C31.8618 35.744 31.5898 35.056 31.5898 34.192C31.5898 32.88 32.0378 31.776 32.9338 30.88C33.8618 29.984 35.0778 29.312 36.5818 28.864C38.0858 28.416 39.7178 28.192 41.4778 28.192C44.3258 28.192 46.5178 28.896 48.0538 30.304C49.6218 31.68 50.4058 33.936 50.4058 37.072V47.68C50.4058 49.12 51.0778 49.84 52.4218 49.84H53.4778L53.9098 50.224C53.3018 50.992 52.6298 51.584 51.8938 52C51.1898 52.416 50.1818 52.624 48.8698 52.624C47.4618 52.624 46.3418 52.304 45.5098 51.664C44.7098 50.992 44.1818 50.112 43.9258 49.024C42.9658 50.048 41.9738 50.928 40.9498 51.664C39.9578 52.368 38.6618 52.72 37.0618 52.72ZM39.9898 49.792C40.6298 49.792 41.2218 49.648 41.7657 49.36C42.3418 49.04 43.0138 48.56 43.7818 47.92V39.856C43.4618 39.92 43.1418 39.984 42.8218 40.048C42.5018 40.112 42.1338 40.176 41.7178 40.24C40.2458 40.624 39.0618 41.28 38.1658 42.208C37.3018 43.104 36.8698 44.32 36.8698 45.856C36.8698 47.168 37.1738 48.16 37.7818 48.832C38.3898 49.472 39.1258 49.792 39.9898 49.792ZM54.8038 52V51.52L55.4758 51.328C56.5958 51.008 57.1558 50.224 57.1558 48.976V33.952C57.1558 33.248 57.0438 32.736 56.8198 32.416C56.5958 32.064 56.1638 31.824 55.5238 31.696L54.8038 31.504V31.024L63.0118 28.24L63.4918 28.72L63.8758 31.6C64.9958 30.608 66.2598 29.792 67.6678 29.152C69.0758 28.512 70.4678 28.192 71.8438 28.192C73.9558 28.192 75.5718 28.768 76.6918 29.92C77.8438 31.072 78.4198 32.832 78.4198 35.2V49.024C78.4198 50.272 79.0278 51.056 80.2438 51.376L80.6758 51.52V52H69.3478V51.52L69.9718 51.328C71.0918 50.976 71.6518 50.192 71.6518 48.976V33.664C71.6518 31.616 70.6278 30.592 68.5798 30.592C67.1718 30.592 65.6358 31.296 63.9718 32.704V49.024C63.9718 50.272 64.5318 51.056 65.6518 51.376L66.0838 51.52V52H54.8038ZM88.3138 25.696C87.2258 25.696 86.2978 25.36 85.5298 24.688C84.7938 23.984 84.4258 23.104 84.4258 22.048C84.4258 20.96 84.7938 20.08 85.5298 19.408C86.2978 18.736 87.2258 18.4 88.3138 18.4C89.4018 18.4 90.3138 18.736 91.0498 19.408C91.7858 20.08 92.1538 20.96 92.1538 22.048C92.1538 23.104 91.7858 23.984 91.0498 24.688C90.3138 25.36 89.4018 25.696 88.3138 25.696ZM82.6498 52V51.52L83.3218 51.328C83.9618 51.136 84.3938 50.848 84.6178 50.464C84.8738 50.08 85.0018 49.568 85.0018 48.928V33.904C85.0018 33.232 84.8738 32.736 84.6178 32.416C84.3938 32.064 83.9618 31.824 83.3218 31.696L82.6498 31.552V31.072L91.4338 28.24L91.9138 28.72L91.7698 35.536V48.976C91.7698 49.616 91.8818 50.128 92.1058 50.512C92.3618 50.896 92.7938 51.184 93.4018 51.376L93.8818 51.52V52H82.6498ZM108.055 28.192C110.135 28.192 111.911 28.624 113.383 29.488C114.855 30.32 115.975 31.472 116.743 32.944C117.543 34.384 117.943 36.032 117.943 37.888C117.943 38.24 117.927 38.608 117.895 38.992C117.863 39.344 117.799 39.664 117.703 39.952H103.399C103.431 43.408 104.039 45.904 105.223 47.44C106.439 48.944 108.231 49.696 110.599 49.696C112.199 49.696 113.495 49.44 114.487 48.928C115.479 48.416 116.407 47.664 117.271 46.672L117.751 47.104C116.759 48.864 115.431 50.24 113.767 51.232C112.135 52.224 110.167 52.72 107.863 52.72C105.591 52.72 103.575 52.24 101.815 51.28C100.055 50.288 98.6789 48.88 97.6869 47.056C96.6949 45.232 96.1989 43.056 96.1989 40.528C96.1989 37.904 96.7749 35.68 97.9269 33.856C99.0789 32 100.551 30.592 102.343 29.632C104.167 28.672 106.071 28.192 108.055 28.192ZM107.911 29.152C106.983 29.152 106.183 29.44 105.511 30.016C104.871 30.56 104.359 31.552 103.975 32.992C103.623 34.4 103.431 36.4 103.399 38.992H111.607C111.927 35.504 111.799 32.992 111.223 31.456C110.647 29.92 109.543 29.152 107.911 29.152ZM119.729 52V51.52L120.305 51.328C121.457 50.944 122.033 50.144 122.033 48.928V23.248C122.033 22.608 121.905 22.128 121.649 21.808C121.393 21.456 120.945 21.2 120.305 21.04L119.681 20.896V20.416L128.465 18.352L129.041 18.784L128.849 25.504V41.92C128.849 43.104 128.849 44.288 128.849 45.472C128.881 46.624 128.897 47.776 128.897 48.928C128.897 49.568 129.025 50.096 129.281 50.512C129.537 50.896 129.969 51.184 130.577 51.376L131.201 51.52V52H119.729ZM143.603 52.144L135.107 31.744C134.659 30.656 133.891 29.936 132.803 29.584L132.131 29.392V28.912H144.563V29.392L143.699 29.584C142.451 29.904 142.067 30.736 142.547 32.08L147.587 45.472L152.291 32.176C152.547 31.536 152.611 31.008 152.483 30.592C152.355 30.176 151.971 29.872 151.331 29.68L150.131 29.392V28.912H157.091V29.392L155.699 29.728C155.091 29.888 154.611 30.128 154.259 30.448C153.939 30.768 153.667 31.248 153.443 31.888L146.387 52.144H143.603ZM165.387 52.624L157.275 52V51.52L157.755 51.424C159.003 51.136 159.627 50.336 159.627 49.024V23.344C159.627 22.672 159.515 22.16 159.291 21.808C159.099 21.456 158.683 21.216 158.043 21.088L157.371 20.896V20.416L165.915 18.352L166.491 18.784L166.299 25.552V30.4C167.355 29.664 168.507 29.12 169.755 28.768C171.003 28.384 172.267 28.192 173.547 28.192C175.371 28.192 176.987 28.624 178.395 29.488C179.803 30.32 180.907 31.632 181.707 33.424C182.539 35.184 182.955 37.456 182.955 40.24C182.955 43.024 182.491 45.344 181.563 47.2C180.667 49.024 179.451 50.4 177.915 51.328C176.411 52.256 174.747 52.72 172.923 52.72C171.739 52.72 170.539 52.56 169.323 52.24C168.139 51.92 167.083 51.472 166.155 50.896L165.387 52.624ZM170.523 51.088C171.547 51.088 172.443 50.768 173.211 50.128C173.979 49.488 174.587 48.4 175.035 46.864C175.483 45.296 175.707 43.152 175.707 40.432C175.707 37.712 175.499 35.616 175.083 34.144C174.667 32.672 174.075 31.648 173.307 31.072C172.571 30.496 171.675 30.208 170.619 30.208C169.115 30.208 167.723 30.624 166.443 31.456V49.888C167.051 50.272 167.675 50.576 168.315 50.8C168.955 50.992 169.691 51.088 170.523 51.088ZM190.372 52.72C189.22 52.72 188.244 52.32 187.444 51.52C186.644 50.72 186.244 49.76 186.244 48.64C186.244 47.52 186.644 46.544 187.444 45.712C188.244 44.88 189.22 44.464 190.372 44.464C191.524 44.464 192.5 44.88 193.3 45.712C194.1 46.544 194.5 47.52 194.5 48.64C194.5 49.76 194.1 50.72 193.3 51.52C192.5 52.32 191.524 52.72 190.372 52.72ZM207.527 52.72C205.639 52.72 203.943 52.304 202.439 51.472C200.935 50.608 199.735 49.296 198.839 47.536C197.975 45.744 197.543 43.456 197.543 40.672C197.543 37.856 198.039 35.536 199.031 33.712C200.023 31.856 201.335 30.48 202.967 29.584C204.599 28.656 206.375 28.192 208.295 28.192C209.415 28.192 210.487 28.304 211.511 28.528C212.535 28.752 213.447 29.088 214.247 29.536V23.296C214.247 22.624 214.135 22.128 213.911 21.808C213.719 21.488 213.287 21.264 212.615 21.136L211.703 20.944V20.464L220.439 18.352L220.967 18.784L220.775 25.504V48.976C220.775 49.616 220.887 50.144 221.111 50.56C221.335 50.944 221.751 51.216 222.359 51.376L222.791 51.52V52L214.583 52.528L214.151 50.8C213.287 51.376 212.295 51.84 211.175 52.192C210.087 52.544 208.871 52.72 207.527 52.72ZM210.311 50.944C211.655 50.944 212.887 50.544 214.007 49.744V30.688C212.823 29.92 211.607 29.536 210.359 29.536C208.823 29.536 207.511 30.432 206.423 32.224C205.335 33.984 204.791 36.768 204.791 40.576C204.791 44.384 205.303 47.072 206.327 48.64C207.351 50.176 208.679 50.944 210.311 50.944ZM236.961 28.192C239.041 28.192 240.817 28.624 242.289 29.488C243.761 30.32 244.881 31.472 245.649 32.944C246.449 34.384 246.849 36.032 246.849 37.888C246.849 38.24 246.833 38.608 246.801 38.992C246.769 39.344 246.705 39.664 246.609 39.952H232.305C232.337 43.408 232.945 45.904 234.129 47.44C235.345 48.944 237.137 49.696 239.505 49.696C241.105 49.696 242.401 49.44 243.393 48.928C244.385 48.416 245.313 47.664 246.177 46.672L246.657 47.104C245.665 48.864 244.337 50.24 242.673 51.232C241.041 52.224 239.073 52.72 236.769 52.72C234.497 52.72 232.481 52.24 230.721 51.28C228.961 50.288 227.585 48.88 226.593 47.056C225.601 45.232 225.105 43.056 225.105 40.528C225.105 37.904 225.681 35.68 226.833 33.856C227.985 32 229.457 30.592 231.249 29.632C233.073 28.672 234.977 28.192 236.961 28.192ZM236.817 29.152C235.889 29.152 235.089 29.44 234.417 30.016C233.777 30.56 233.265 31.552 232.881 32.992C232.529 34.4 232.337 36.4 232.305 38.992H240.513C240.833 35.504 240.705 32.992 240.129 31.456C239.553 29.92 238.449 29.152 236.817 29.152ZM259.806 52.144L251.31 31.744C250.862 30.656 250.094 29.936 249.006 29.584L248.334 29.392V28.912H260.766V29.392L259.902 29.584C258.654 29.904 258.27 30.736 258.75 32.08L263.79 45.472L268.494 32.176C268.75 31.536 268.814 31.008 268.686 30.592C268.558 30.176 268.174 29.872 267.534 29.68L266.334 29.392V28.912H273.294V29.392L271.902 29.728C271.294 29.888 270.814 30.128 270.462 30.448C270.142 30.768 269.87 31.248 269.646 31.888L262.59 52.144H259.806Z" fill="#CCCCCC"/>
<path d="M11.136 50.72C9.248 50.72 7.552 50.304 6.048 49.472C4.544 48.608 3.344 47.296 2.448 45.536C1.584 43.744 1.152 41.456 1.152 38.672C1.152 35.856 1.648 33.536 2.64 31.712C3.632 29.856 4.944 28.48 6.576 27.584C8.208 26.656 9.984 26.192 11.904 26.192C13.024 26.192 14.096 26.304 15.12 26.528C16.144 26.752 17.056 27.088 17.856 27.536V21.296C17.856 20.624 17.744 20.128 17.52 19.808C17.328 19.488 16.896 19.264 16.224 19.136L15.312 18.944V18.464L24.048 16.352L24.576 16.784L24.384 23.504V46.976C24.384 47.616 24.496 48.144 24.72 48.56C24.944 48.944 25.36 49.216 25.968 49.376L26.4 49.52V50L18.192 50.528L17.76 48.8C16.896 49.376 15.904 49.84 14.784 50.192C13.696 50.544 12.48 50.72 11.136 50.72ZM13.92 48.944C15.264 48.944 16.496 48.544 17.616 47.744V28.688C16.432 27.92 15.216 27.536 13.968 27.536C12.432 27.536 11.12 28.432 10.032 30.224C8.944 31.984 8.4 34.768 8.4 38.576C8.4 42.384 8.912 45.072 9.936 46.64C10.96 48.176 12.288 48.944 13.92 48.944ZM35.0618 50.72C33.2058 50.72 31.6378 50.192 30.3578 49.136C29.1098 48.08 28.4858 46.56 28.4858 44.576C28.4858 43.072 29.2538 41.696 30.7898 40.448C32.3258 39.168 34.7418 38.208 38.0378 37.568C38.5498 37.472 39.1258 37.376 39.7657 37.28C40.4058 37.152 41.0778 37.024 41.7818 36.896V33.104C41.7818 30.928 41.5098 29.408 40.9658 28.544C40.4538 27.648 39.6378 27.2 38.5178 27.2C37.7498 27.2 37.1418 27.456 36.6938 27.968C36.2458 28.448 35.9578 29.296 35.8298 30.512L35.7338 31.04C35.6698 32.416 35.3338 33.424 34.7258 34.064C34.1178 34.704 33.3658 35.024 32.4698 35.024C31.6378 35.024 30.9498 34.768 30.4058 34.256C29.8618 33.744 29.5898 33.056 29.5898 32.192C29.5898 30.88 30.0378 29.776 30.9338 28.88C31.8618 27.984 33.0778 27.312 34.5818 26.864C36.0858 26.416 37.7178 26.192 39.4778 26.192C42.3258 26.192 44.5178 26.896 46.0538 28.304C47.6218 29.68 48.4058 31.936 48.4058 35.072V45.68C48.4058 47.12 49.0778 47.84 50.4218 47.84H51.4778L51.9098 48.224C51.3018 48.992 50.6298 49.584 49.8938 50C49.1898 50.416 48.1818 50.624 46.8698 50.624C45.4618 50.624 44.3418 50.304 43.5098 49.664C42.7098 48.992 42.1818 48.112 41.9258 47.024C40.9658 48.048 39.9738 48.928 38.9498 49.664C37.9578 50.368 36.6618 50.72 35.0618 50.72ZM37.9898 47.792C38.6298 47.792 39.2218 47.648 39.7657 47.36C40.3418 47.04 41.0138 46.56 41.7818 45.92V37.856C41.4618 37.92 41.1418 37.984 40.8218 38.048C40.5018 38.112 40.1338 38.176 39.7178 38.24C38.2458 38.624 37.0618 39.28 36.1658 40.208C35.3018 41.104 34.8698 42.32 34.8698 43.856C34.8698 45.168 35.1738 46.16 35.7818 46.832C36.3898 47.472 37.1258 47.792 37.9898 47.792ZM52.8038 50V49.52L53.4758 49.328C54.5958 49.008 55.1558 48.224 55.1558 46.976V31.952C55.1558 31.248 55.0438 30.736 54.8198 30.416C54.5958 30.064 54.1638 29.824 53.5238 29.696L52.8038 29.504V29.024L61.0118 26.24L61.4918 26.72L61.8758 29.6C62.9958 28.608 64.2598 27.792 65.6678 27.152C67.0758 26.512 68.4678 26.192 69.8438 26.192C71.9558 26.192 73.5718 26.768 74.6918 27.92C75.8438 29.072 76.4198 30.832 76.4198 33.2V47.024C76.4198 48.272 77.0278 49.056 78.2438 49.376L78.6758 49.52V50H67.3478V49.52L67.9718 49.328C69.0918 48.976 69.6518 48.192 69.6518 46.976V31.664C69.6518 29.616 68.6278 28.592 66.5798 28.592C65.1718 28.592 63.6358 29.296 61.9718 30.704V47.024C61.9718 48.272 62.5318 49.056 63.6518 49.376L64.0838 49.52V50H52.8038ZM86.3138 23.696C85.2258 23.696 84.2978 23.36 83.5298 22.688C82.7938 21.984 82.4258 21.104 82.4258 20.048C82.4258 18.96 82.7938 18.08 83.5298 17.408C84.2978 16.736 85.2258 16.4 86.3138 16.4C87.4018 16.4 88.3138 16.736 89.0498 17.408C89.7858 18.08 90.1538 18.96 90.1538 20.048C90.1538 21.104 89.7858 21.984 89.0498 22.688C88.3138 23.36 87.4018 23.696 86.3138 23.696ZM80.6498 50V49.52L81.3218 49.328C81.9618 49.136 82.3938 48.848 82.6178 48.464C82.8738 48.08 83.0018 47.568 83.0018 46.928V31.904C83.0018 31.232 82.8738 30.736 82.6178 30.416C82.3938 30.064 81.9618 29.824 81.3218 29.696L80.6498 29.552V29.072L89.4338 26.24L89.9138 26.72L89.7698 33.536V46.976C89.7698 47.616 89.8818 48.128 90.1058 48.512C90.3618 48.896 90.7938 49.184 91.4018 49.376L91.8818 49.52V50H80.6498ZM106.055 26.192C108.135 26.192 109.911 26.624 111.383 27.488C112.855 28.32 113.975 29.472 114.743 30.944C115.543 32.384 115.943 34.032 115.943 35.888C115.943 36.24 115.927 36.608 115.895 36.992C115.863 37.344 115.799 37.664 115.703 37.952H101.399C101.431 41.408 102.039 43.904 103.223 45.44C104.439 46.944 106.231 47.696 108.599 47.696C110.199 47.696 111.495 47.44 112.487 46.928C113.479 46.416 114.407 45.664 115.271 44.672L115.751 45.104C114.759 46.864 113.431 48.24 111.767 49.232C110.135 50.224 108.167 50.72 105.863 50.72C103.591 50.72 101.575 50.24 99.8149 49.28C98.0549 48.288 96.6789 46.88 95.6869 45.056C94.6949 43.232 94.1989 41.056 94.1989 38.528C94.1989 35.904 94.7749 33.68 95.9269 31.856C97.0789 30 98.5509 28.592 100.343 27.632C102.167 26.672 104.071 26.192 106.055 26.192ZM105.911 27.152C104.983 27.152 104.183 27.44 103.511 28.016C102.871 28.56 102.359 29.552 101.975 30.992C101.623 32.4 101.431 34.4 101.399 36.992H109.607C109.927 33.504 109.799 30.992 109.223 29.456C108.647 27.92 107.543 27.152 105.911 27.152ZM117.729 50V49.52L118.305 49.328C119.457 48.944 120.033 48.144 120.033 46.928V21.248C120.033 20.608 119.905 20.128 119.649 19.808C119.393 19.456 118.945 19.2 118.305 19.04L117.681 18.896V18.416L126.465 16.352L127.041 16.784L126.849 23.504V39.92C126.849 41.104 126.849 42.288 126.849 43.472C126.881 44.624 126.897 45.776 126.897 46.928C126.897 47.568 127.025 48.096 127.281 48.512C127.537 48.896 127.969 49.184 128.577 49.376L129.201 49.52V50H117.729ZM141.603 50.144L133.107 29.744C132.659 28.656 131.891 27.936 130.803 27.584L130.131 27.392V26.912H142.563V27.392L141.699 27.584C140.451 27.904 140.067 28.736 140.547 30.08L145.587 43.472L150.291 30.176C150.547 29.536 150.611 29.008 150.483 28.592C150.355 28.176 149.971 27.872 149.331 27.68L148.131 27.392V26.912H155.091V27.392L153.699 27.728C153.091 27.888 152.611 28.128 152.259 28.448C151.939 28.768 151.667 29.248 151.443 29.888L144.387 50.144H141.603ZM163.387 50.624L155.275 50V49.52L155.755 49.424C157.003 49.136 157.627 48.336 157.627 47.024V21.344C157.627 20.672 157.515 20.16 157.291 19.808C157.099 19.456 156.683 19.216 156.043 19.088L155.371 18.896V18.416L163.915 16.352L164.491 16.784L164.299 23.552V28.4C165.355 27.664 166.507 27.12 167.755 26.768C169.003 26.384 170.267 26.192 171.547 26.192C173.371 26.192 174.987 26.624 176.395 27.488C177.803 28.32 178.907 29.632 179.707 31.424C180.539 33.184 180.955 35.456 180.955 38.24C180.955 41.024 180.491 43.344 179.563 45.2C178.667 47.024 177.451 48.4 175.915 49.328C174.411 50.256 172.747 50.72 170.923 50.72C169.739 50.72 168.539 50.56 167.323 50.24C166.139 49.92 165.083 49.472 164.155 48.896L163.387 50.624ZM168.523 49.088C169.547 49.088 170.443 48.768 171.211 48.128C171.979 47.488 172.587 46.4 173.035 44.864C173.483 43.296 173.707 41.152 173.707 38.432C173.707 35.712 173.499 33.616 173.083 32.144C172.667 30.672 172.075 29.648 171.307 29.072C170.571 28.496 169.675 28.208 168.619 28.208C167.115 28.208 165.723 28.624 164.443 29.456V47.888C165.051 48.272 165.675 48.576 166.315 48.8C166.955 48.992 167.691 49.088 168.523 49.088ZM188.372 50.72C187.22 50.72 186.244 50.32 185.444 49.52C184.644 48.72 184.244 47.76 184.244 46.64C184.244 45.52 184.644 44.544 185.444 43.712C186.244 42.88 187.22 42.464 188.372 42.464C189.524 42.464 190.5 42.88 191.3 43.712C192.1 44.544 192.5 45.52 192.5 46.64C192.5 47.76 192.1 48.72 191.3 49.52C190.5 50.32 189.524 50.72 188.372 50.72ZM205.527 50.72C203.639 50.72 201.943 50.304 200.439 49.472C198.935 48.608 197.735 47.296 196.839 45.536C195.975 43.744 195.543 41.456 195.543 38.672C195.543 35.856 196.039 33.536 197.031 31.712C198.023 29.856 199.335 28.48 200.967 27.584C202.599 26.656 204.375 26.192 206.295 26.192C207.415 26.192 208.487 26.304 209.511 26.528C210.535 26.752 211.447 27.088 212.247 27.536V21.296C212.247 20.624 212.135 20.128 211.911 19.808C211.719 19.488 211.287 19.264 210.615 19.136L209.703 18.944V18.464L218.439 16.352L218.967 16.784L218.775 23.504V46.976C218.775 47.616 218.887 48.144 219.111 48.56C219.335 48.944 219.751 49.216 220.359 49.376L220.791 49.52V50L212.583 50.528L212.151 48.8C211.287 49.376 210.295 49.84 209.175 50.192C208.087 50.544 206.871 50.72 205.527 50.72ZM208.311 48.944C209.655 48.944 210.887 48.544 212.007 47.744V28.688C210.823 27.92 209.607 27.536 208.359 27.536C206.823 27.536 205.511 28.432 204.423 30.224C203.335 31.984 202.791 34.768 202.791 38.576C202.791 42.384 203.303 45.072 204.327 46.64C205.351 48.176 206.679 48.944 208.311 48.944ZM234.961 26.192C237.041 26.192 238.817 26.624 240.289 27.488C241.761 28.32 242.881 29.472 243.649 30.944C244.449 32.384 244.849 34.032 244.849 35.888C244.849 36.24 244.833 36.608 244.801 36.992C244.769 37.344 244.705 37.664 244.609 37.952H230.305C230.337 41.408 230.945 43.904 232.129 45.44C233.345 46.944 235.137 47.696 237.505 47.696C239.105 47.696 240.401 47.44 241.393 46.928C242.385 46.416 243.313 45.664 244.177 44.672L244.657 45.104C243.665 46.864 242.337 48.24 240.673 49.232C239.041 50.224 237.073 50.72 234.769 50.72C232.497 50.72 230.481 50.24 228.721 49.28C226.961 48.288 225.585 46.88 224.593 45.056C223.601 43.232 223.105 41.056 223.105 38.528C223.105 35.904 223.681 33.68 224.833 31.856C225.985 30 227.457 28.592 229.249 27.632C231.073 26.672 232.977 26.192 234.961 26.192ZM234.817 27.152C233.889 27.152 233.089 27.44 232.417 28.016C231.777 28.56 231.265 29.552 230.881 30.992C230.529 32.4 230.337 34.4 230.305 36.992H238.513C238.833 33.504 238.705 30.992 238.129 29.456C237.553 27.92 236.449 27.152 234.817 27.152ZM257.806 50.144L249.31 29.744C248.862 28.656 248.094 27.936 247.006 27.584L246.334 27.392V26.912H258.766V27.392L257.902 27.584C256.654 27.904 256.27 28.736 256.75 30.08L261.79 43.472L266.494 30.176C266.75 29.536 266.814 29.008 266.686 28.592C266.558 28.176 266.174 27.872 265.534 27.68L264.334 27.392V26.912H271.294V27.392L269.902 27.728C269.294 27.888 268.814 28.128 268.462 28.448C268.142 28.768 267.87 29.248 267.646 29.888L260.59 50.144H257.806Z" fill="black"/>
</svg>

